<svg width="124" height="54" viewBox="0 0 124 54" fill="none" xmlns="http://www.w3.org/2000/svg">
<path d="M35.048 40.432C33.104 40.432 31.292 40.12 29.612 39.496C27.956 38.848 26.516 37.936 25.292 36.76C24.068 35.584 23.108 34.204 22.412 32.62C21.74 31.036 21.404 29.296 21.404 27.4C21.404 25.504 21.74 23.764 22.412 22.18C23.108 20.596 24.068 19.216 25.292 18.04C26.54 16.864 27.992 15.964 29.648 15.34C31.304 14.692 33.116 14.368 35.084 14.368C37.268 14.368 39.236 14.752 40.988 15.52C42.764 16.264 44.252 17.368 45.452 18.832L41.708 22.288C40.844 21.304 39.884 20.572 38.828 20.092C37.772 19.588 36.62 19.336 35.372 19.336C34.196 19.336 33.116 19.528 32.132 19.912C31.148 20.296 30.296 20.848 29.576 21.568C28.856 22.288 28.292 23.14 27.884 24.124C27.5 25.108 27.308 26.2 27.308 27.4C27.308 28.6 27.5 29.692 27.884 30.676C28.292 31.66 28.856 32.512 29.576 33.232C30.296 33.952 31.148 34.504 32.132 34.888C33.116 35.272 34.196 35.464 35.372 35.464C36.62 35.464 37.772 35.224 38.828 34.744C39.884 34.24 40.844 33.484 41.708 32.476L45.452 35.932C44.252 37.396 42.764 38.512 40.988 39.28C39.236 40.048 37.256 40.432 35.048 40.432ZM49.3903 40V14.8H54.2143L64.9423 32.584H62.3863L72.9343 14.8H77.7223L77.7943 40H72.3223L72.2863 23.188H73.2943L64.8703 37.336H62.2423L53.6383 23.188H54.8623V40H49.3903ZM92.0532 40.432C90.0372 40.432 88.1052 40.168 86.2572 39.64C84.4092 39.088 82.9212 38.38 81.7932 37.516L83.7732 33.124C84.8532 33.892 86.1252 34.528 87.5892 35.032C89.0772 35.512 90.5772 35.752 92.0892 35.752C93.2412 35.752 94.1652 35.644 94.8612 35.428C95.5812 35.188 96.1092 34.864 96.4452 34.456C96.7812 34.048 96.9492 33.58 96.9492 33.052C96.9492 32.38 96.6852 31.852 96.1572 31.468C95.6292 31.06 94.9332 30.736 94.0692 30.496C93.2052 30.232 92.2452 29.992 91.1892 29.776C90.1572 29.536 89.1132 29.248 88.0572 28.912C87.0252 28.576 86.0772 28.144 85.2132 27.616C84.3492 27.088 83.6412 26.392 83.0892 25.528C82.5612 24.664 82.2972 23.56 82.2972 22.216C82.2972 20.776 82.6812 19.468 83.4492 18.292C84.2412 17.092 85.4172 16.144 86.9772 15.448C88.5612 14.728 90.5412 14.368 92.9172 14.368C94.5012 14.368 96.0612 14.56 97.5972 14.944C99.1332 15.304 100.489 15.856 101.665 16.6L99.8652 21.028C98.6892 20.356 97.5132 19.864 96.3372 19.552C95.1612 19.216 94.0092 19.048 92.8812 19.048C91.7532 19.048 90.8292 19.18 90.1092 19.444C89.3892 19.708 88.8732 20.056 88.5612 20.488C88.2492 20.896 88.0932 21.376 88.0932 21.928C88.0932 22.576 88.3572 23.104 88.8852 23.512C89.4132 23.896 90.1092 24.208 90.9732 24.448C91.8372 24.688 92.7852 24.928 93.8172 25.168C94.8732 25.408 95.9172 25.684 96.9492 25.996C98.0052 26.308 98.9652 26.728 99.8292 27.256C100.693 27.784 101.389 28.48 101.917 29.344C102.469 30.208 102.745 31.3 102.745 32.62C102.745 34.036 102.349 35.332 101.557 36.508C100.765 37.684 99.5772 38.632 97.9932 39.352C96.4332 40.072 94.4532 40.432 92.0532 40.432Z" fill="white"/>
<rect x="2.5" y="2.5" width="119" height="49" stroke="white" stroke-width="5"/>
</svg>
