<svg width="495" height="216" viewBox="0 0 495 216" fill="none" xmlns="http://www.w3.org/2000/svg">
<path d="M140.192 161.728C129.92 161.728 120.608 159.52 112.256 155.104C104 150.592 97.472 144.4 92.672 136.528C87.968 128.56 85.616 119.584 85.616 109.6C85.616 99.616 87.968 90.688 92.672 82.816C97.472 74.848 104 68.656 112.256 64.24C120.608 59.728 129.968 57.472 140.336 57.472C149.072 57.472 156.944 59.008 163.952 62.08C171.056 65.152 177.008 69.568 181.808 75.328L166.832 89.152C160.016 81.28 151.568 77.344 141.488 77.344C135.248 77.344 129.68 78.736 124.784 81.52C119.888 84.208 116.048 88 113.264 92.896C110.576 97.792 109.232 103.36 109.232 109.6C109.232 115.84 110.576 121.408 113.264 126.304C116.048 131.2 119.888 135.04 124.784 137.824C129.68 140.512 135.248 141.856 141.488 141.856C151.568 141.856 160.016 137.872 166.832 129.904L181.808 143.728C177.008 149.584 171.056 154.048 163.952 157.12C156.848 160.192 148.928 161.728 140.192 161.728ZM289.289 160L289.145 99.52L259.481 149.344H248.969L219.449 100.816V160H197.561V59.2H216.857L254.585 121.84L291.737 59.2H310.889L311.177 160H289.289ZM368.213 161.728C360.245 161.728 352.517 160.672 345.029 158.56C337.637 156.352 331.685 153.52 327.173 150.064L335.093 132.496C339.413 135.664 344.549 138.208 350.501 140.128C356.453 142.048 362.405 143.008 368.357 143.008C374.981 143.008 379.877 142.048 383.045 140.128C386.213 138.112 387.797 135.472 387.797 132.208C387.797 129.808 386.837 127.84 384.917 126.304C383.093 124.672 380.693 123.376 377.717 122.416C374.837 121.456 370.901 120.4 365.909 119.248C358.229 117.424 351.941 115.6 347.045 113.776C342.149 111.952 337.925 109.024 334.373 104.992C330.917 100.96 329.189 95.584 329.189 88.864C329.189 83.008 330.773 77.728 333.941 73.024C337.109 68.224 341.861 64.432 348.197 61.648C354.629 58.864 362.453 57.472 371.669 57.472C378.101 57.472 384.389 58.24 390.533 59.776C396.677 61.312 402.053 63.52 406.661 66.4L399.461 84.112C390.149 78.832 380.837 76.192 371.525 76.192C364.997 76.192 360.149 77.248 356.981 79.36C353.909 81.472 352.373 84.256 352.373 87.712C352.373 91.168 354.149 93.76 357.701 95.488C361.349 97.12 366.869 98.752 374.261 100.384C381.941 102.208 388.229 104.032 393.125 105.856C398.021 107.68 402.197 110.56 405.653 114.496C409.205 118.432 410.981 123.76 410.981 130.48C410.981 136.24 409.349 141.52 406.085 146.32C402.917 151.024 398.117 154.768 391.685 157.552C385.253 160.336 377.429 161.728 368.213 161.728Z" fill="black"/>
<rect x="10" y="10" width="475" height="196" stroke="black" stroke-width="20"/>
</svg>
